# File created by Blade
# Date/Time:  Thu Jan 22 19:24:27 2015
#---------------------------------------------------------
:version 1.10
:name HOM
:units
  mass 1.0
  length 1.000000
  angle deg
:documentation
     Acclaim Skeleton File
:root
   axis xyz
   order TX TY TZ RX RY RZ
   position 0.000000 0.000000 0.000000
   orientation 0 0 0
:bonedata
   begin
      id 1
      name RightUpLeg_dum
      direction -1.000000 0.000000 0.000000
      length 4.478084
      axis 0.0 0.0 0.0 xyz
   end
   begin
      id 2
      name LeftUpLeg_dum
      direction 1.000000 0.000000 0.000000
      length 4.478084
      axis 0.0 0.0 0.0 xyz
   end
   begin
      id 3
      name Spine_dum
      direction 0.000000 1.000000 0.000000
      length 6.068208
      axis 0.0 0.0 0.0 xyz
   end
   begin
      id 4
      name RightUpLeg
      direction 0.000000 -1.000000 0.000000
      length 16.405774
      axis 0.0 0.0 0.0 xyz
      dof rx ry rz
   end
   begin
      id 5
      name RightLeg
      direction 0.000000 -1.000000 0.000000
      length 14.644143
      axis 0.0 0.0 0.0 xyz
      dof rx ry rz
   end
   begin
      id 6
      name RightFoot
      direction 0.000000 -0.258819 0.965926
      length 5.806150
      axis 15.0 0.0 0.0 xyz
      dof rx ry rz
   end
   begin
      id 7
      name RightToeBase
      direction 0.000000 0.000000 1.000000
      length 2.952750
      axis 0.0 0.0 0.0 xyz
      dof rx ry rz
   end
   begin
      id 8
      name LeftUpLeg
      direction 0.000000 -1.000000 0.000000
      length 16.405774
      axis 0.0 0.0 0.0 xyz
      dof rx ry rz
   end
   begin
      id 9
      name LeftLeg
      direction 0.000000 -1.000000 0.000000
      length 14.644143
      axis 0.0 0.0 0.0 xyz
      dof rx ry rz
   end
   begin
      id 10
      name LeftFoot
      direction 0.000000 -0.258819 0.965926
      length 5.806150
      axis 15.0 0.0 0.0 xyz
      dof rx ry rz
   end
   begin
      id 11
      name LeftToeBase
      direction 0.000000 0.000000 1.000000
      length 2.952750
      axis 0.0 0.0 0.0 xyz
      dof rx ry rz
   end
   begin
      id 12
      name Spine
      direction 0.000000 1.000000 0.000000
      length 0.000000
      axis 0.0 0.0 0.0 xyz
      dof rx ry rz
   end
   begin
      id 13
      name Spine_dum1
      direction 0.000000 1.000000 0.000000
      length 10.013923
      axis 0.0 0.0 0.0 xyz
   end
   begin
      id 14
      name Spine_dum2
      direction 0.000000 1.000000 0.000000
      length 10.013923
      axis 0.0 0.0 0.0 xyz
   end
   begin
      id 15
      name Spine_dum3
      direction 0.000000 1.000000 0.000000
      length 15.777476
      axis 0.0 0.0 0.0 xyz
   end
   begin
      id 16
      name RightShoulder
      direction -1.000000 0.000000 0.000000
      length 7.190220
      axis 0.0 0.0 90.0 xyz
      dof rx ry rz
   end
   begin
      id 17
      name RightArm
      direction -1.000000 0.000000 0.000000
      length 10.177469
      axis 0.0 0.0 90.0 xyz
      dof rx ry rz
   end
   begin
      id 18
      name RightForeArm
      direction -1.000000 0.000000 0.000000
      length 8.392114
      axis 0.0 0.0 90.0 xyz
      dof ry rz rx
   end
   begin
      id 19
      name RightHand
      direction -1.000000 0.000000 0.000000
      length 0.000000
      axis 0.0 0.0 90.0 xyz
      dof rx ry rz
   end
   begin
      id 20
      name RightHand_dum1
      direction -1.000000 0.000000 0.000000
      length 3.937000
      axis 0.0 0.0 90.0 xyz
   end
   begin
      id 21
      name RightHand_dum2
      direction 0.000000 0.000000 0.000000
      length 0.000000
      axis 0.0 0.0 90.0 xyz
   end
   begin
      id 22
      name RightHandThumb1
      direction 0.000000 0.000000 1.000000
      length 3.937000
      axis 0.0 0.0 90.0 xyz
      dof rx rz ry
   end
   begin
      id 23
      name LeftShoulder
      direction 1.000000 0.000000 0.000000
      length 7.190220
      axis 0.0 0.0 -90.0 xyz
      dof rx ry rz
   end
   begin
      id 24
      name LeftArm
      direction 1.000000 0.000000 0.000000
      length 10.177469
      axis 0.0 0.0 -90.0 xyz
      dof rx ry rz
   end
   begin
      id 25
      name LeftForeArm
      direction 1.000000 0.000000 0.000000
      length 8.392114
      axis 0.0 0.0 -90.0 xyz
      dof ry rz rx
   end
   begin
      id 26
      name LeftHand
      direction 1.000000 0.000000 0.000000
      length 0.000000
      axis 0.0 0.0 -90.0 xyz
      dof rx ry rz
   end
   begin
      id 27
      name LeftHand_dum1
      direction 1.000000 0.000000 0.000000
      length 3.937000
      axis 0.0 0.0 -90.0 xyz
   end
   begin
      id 28
      name LeftHand_dum2
      direction 0.000000 0.000000 0.000000
      length 0.000000
      axis 0.0 0.0 -90.0 xyz
   end
   begin
      id 29
      name LeftHandThumb1
      direction 0.000000 0.000000 1.000000
      length 3.937000
      axis 0.0 0.0 -90.0 xyz
      dof rx rz ry
   end
   begin
      id 30
      name Head
      direction 0.000000 1.000000 0.000000
      length 4.527550
      axis 0.0 0.0 0.0 xyz
      dof rx ry rz
   end
:hierarchy
   begin
      root RightUpLeg_dum LeftUpLeg_dum Spine_dum
      RightUpLeg_dum RightUpLeg
      LeftUpLeg_dum LeftUpLeg
      Spine_dum Spine
      RightUpLeg RightLeg
      RightLeg RightFoot
      RightFoot RightToeBase
      LeftUpLeg LeftLeg
      LeftLeg LeftFoot
      LeftFoot LeftToeBase
      Spine Spine_dum1 Spine_dum2 Spine_dum3
      Spine_dum1 RightShoulder
      Spine_dum2 LeftShoulder
      Spine_dum3 Head
      RightShoulder RightArm
      RightArm RightForeArm
      RightForeArm RightHand
      RightHand RightHand_dum1 RightHand_dum2
      RightHand_dum2 RightHandThumb1
      LeftShoulder LeftArm
      LeftArm LeftForeArm
      LeftForeArm LeftHand
      LeftHand LeftHand_dum1 LeftHand_dum2
      LeftHand_dum2 LeftHandThumb1
   end

# File created by Blade
# Date/Time:  Thu Jan 22 19:24:19 2015
# Frame Rate: 120.000 fps
#------------------------------------------------------
:FULLY-SPECIFIED
:DEGREES
1115
root -9.623248 31.838278 -3.212191 11.022320 -13.287833 -0.778019
RightUpLeg -0.339742 14.523158 16.967466
RightLeg -3.774235 -0.000000 0.000000
RightFoot -3.763666 -3.794578 -12.825043
RightToeBase 1.086228 -0.000000 -0.000000
LeftUpLeg -22.233278 1.017285 -8.609577
LeftLeg 34.734907 -0.000000 -0.000000
LeftFoot -28.031718 13.097286 -11.664006
LeftToeBase 7.378639 -0.000000 -0.000000
Spine -7.533429 -2.670150 -36.179317
RightShoulder -20.668410 19.919801 -65.965956
RightArm 60.596510 50.216386 33.051517
RightForeArm -3.051641 -0.000000 28.233482
RightHand 18.890730 -0.000000 -7.649825
RightHandThumb1 -24.326973 -0.000000 -32.862282
LeftShoulder -17.018407 4.439313 6.296471
LeftArm 14.894692 22.170934 -65.551425
LeftForeArm 18.523385 0.000000 11.823203
LeftHand -2.280016 0.000000 -6.796517
LeftHandThumb1 -26.253704 0.000000 33.147579
Head -13.949063 -1.287795 -36.633236
1116
root -9.617466 31.835963 -3.216118 11.046300 -13.272432 -0.787602
RightUpLeg -0.356835 14.526247 16.971225
RightLeg -3.810518 -0.000000 0.000000
RightFoot -3.759014 -3.793454 -12.833846
RightToeBase 1.078887 -0.000000 -0.000000
LeftUpLeg -22.304430 1.045346 -8.604585
LeftLeg 34.820808 -0.000000 -0.000000
LeftFoot -28.045087 13.017334 -11.731995
LeftToeBase 7.397827 -0.000000 -0.000000
Spine -7.513678 -2.667283 -36.106929
RightShoulder -20.661537 19.916830 -65.971852
RightArm 60.623818 50.231838 33.034624
RightForeArm -3.063549 0.000000 28.188742
RightHand 18.935929 -0.000000 -7.633368
RightHandThumb1 -24.326973 -0.000000 -32.862282
LeftShoulder -16.988459 4.401068 6.263115
LeftArm 14.934115 22.113495 -65.618156
LeftForeArm 18.547971 -0.000000 11.742492
LeftHand -2.314341 -0.000000 -6.770580
LeftHandThumb1 -26.253704 0.000000 33.147579
Head -13.957078 -1.300518 -36.565270
1117
root -9.610659 31.834336 -3.220603 11.078729 -13.259703 -0.782541
RightUpLeg -0.390864 14.528133 16.954223
RightLeg -3.834733 -0.000000 0.000000
RightFoot -3.723304 -3.806127 -12.982698
RightToeBase 0.891778 -0.000000 -0.000000
LeftUpLeg -22.385115 1.037416 -8.609675
LeftLeg 34.894580 -0.000000 -0.000000
LeftFoot -28.033016 12.947835 -11.814325
LeftToeBase 7.338784 -0.000000 -0.000000
Spine -7.502508 -2.671474 -36.064188
RightShoulder -20.666215 19.946086 -65.979198
RightArm 60.601873 50.204453 32.989476
RightForeArm -3.081485 -0.000000 28.131567
RightHand 18.975713 -0.000000 -7.635810
RightHandThumb1 -24.326973 -0.000000 -32.862282
LeftShoulder -16.978397 4.379641 6.249013
LeftArm 15.005785 22.069830 -65.681481
LeftForeArm 18.559771 -0.000000 11.668445
LeftHand -2.250613 -0.000000 -6.802056
LeftHandThumb1 -26.253704 0.000000 33.147579
Head -13.931337 -1.304184 -36.434982
1118
root -9.605213 31.833204 -3.225112 11.101355 -13.242642 -0.785283
RightUpLeg -0.407472 14.545906 16.947975
RightLeg -3.875528 -0.000000 0.000000
RightFoot -3.712722 -3.809441 -12.999280
RightToeBase 0.972590 -0.000000 -0.000000
LeftUpLeg -22.446778 1.010941 -8.607577
LeftLeg 34.956116 -0.000000 -0.000000
LeftFoot -28.034282 12.913899 -11.880956
LeftToeBase 7.284102 -0.000000 -0.000000
Spine -7.474786 -2.669942 -36.021393
RightShoulder -20.685712 19.957278 -65.981640
RightArm 60.603168 50.186235 32.997328
RightForeArm -3.105118 0.000000 28.103466
RightHand 18.933947 -0.000000 -7.623990
RightHandThumb1 -24.326973 -0.000000 -32.862282
LeftShoulder -16.976243 4.318419 6.252713
LeftArm 15.046074 22.142921 -65.719867
LeftForeArm 18.502738 0.000000 11.641954
LeftHand -2.202921 0.000000 -6.783727
LeftHandThumb1 -26.253704 0.000000 33.147579
Head -13.894986 -1.340021 -36.340629
1119
root -9.599428 31.832248 -3.229003 11.117189 -13.228305 -0.788215
RightUpLeg -0.424489 14.559616 16.940018
RightLeg -3.898003 -0.000000 0.000000
RightFoot -3.705414 -3.812399 -13.046790
RightToeBase 0.953108 -0.000000 -0.000000
LeftUpLeg -22.491714 0.949172 -8.602174
LeftLeg 35.002247 -0.000000 -0.000000
LeftFoot -28.042265 12.906148 -11.950420
LeftToeBase 7.204574 -0.000000 -0.000000
Spine -7.452278 -2.648601 -35.977038
RightShoulder -20.691260 19.903116 -65.987036
RightArm 60.626226 50.202342 33.051380
RightForeArm -3.064017 -0.000000 28.083603
RightHand 18.896698 -0.000000 -7.639262
RightHandThumb1 -24.326973 -0.000000 -32.862282
LeftShoulder -16.945690 4.271041 6.259818
LeftArm 15.070340 22.252907 -65.744484
LeftForeArm 18.392132 -0.000000 11.682625
LeftHand -2.222089 -0.000000 -6.786867
LeftHandThumb1 -26.253704 0.000000 33.147579
Head -13.847211 -1.356450 -36.227964
1120
root -9.592309 31.831987 -3.231687 11.133915 -13.210158 -0.790930
RightUpLeg -0.436858 14.567384 16.927557
RightLeg -3.929983 -0.000000 0.000000
RightFoot -3.676788 -3.809171 -13.087963
RightToeBase 0.874357 -0.000000 -0.000000
LeftUpLeg -22.528379 0.872912 -8.601730
LeftLeg 35.027582 -0.000000 -0.000000
LeftFoot -28.063230 12.945082 -12.001524
LeftToeBase 7.295663 -0.000000 -0.000000
Spine -7.438030 -2.637402 -35.916891
RightShoulder -20.678403 19.937368 -66.025437
RightArm 60.589309 50.171292 33.055751
RightForeArm -3.040191 -0.000000 28.035666
RightHand 18.929338 0.000000 -7.678706
RightHandThumb1 -24.326973 -0.000000 -32.862282
LeftShoulder -16.921644 4.243664 6.230671
LeftArm 15.109975 22.302307 -65.756166
LeftForeArm 18.360719 -0.000000 11.728045
LeftHand -2.264113 -0.000000 -6.802708
LeftHandThumb1 -26.253704 0.000000 33.147579
Head -13.812094 -1.355327 -36.163254
1121
root -9.586128 31.832561 -3.234780 11.152122 -13.204300 -0.798203
RightUpLeg -0.453599 14.597041 16.915896
RightLeg -3.948119 -0.000000 0.000000
RightFoot -3.640906 -3.821395 -13.175431
RightToeBase 0.738276 -0.000000 -0.000000
LeftUpLeg -22.559734 0.798925 -8.595995
LeftLeg 35.044016 -0.000000 -0.000000
LeftFoot -28.074964 12.997603 -12.001387
LeftToeBase 7.411473 -0.000000 -0.000000
Spine -7.427443 -2.595900 -35.884730
RightShoulder -20.682345 19.967204 -66.019701
RightArm 60.532685 50.122442 33.033287
RightForeArm -2.990479 -0.000000 27.992650
RightHand 18.947909 0.000000 -7.607186
RightHandThumb1 -24.326973 -0.000000 -32.862282
LeftShoulder -16.894501 4.187422 6.253129
LeftArm 15.131849 22.385718 -65.801759
LeftForeArm 18.382803 -0.000000 11.770824
LeftHand -2.318054 -0.000000 -6.767460
LeftHandThumb1 -26.253704 0.000000 33.147579
Head -13.758202 -1.380242 -36.057097
1122
root -9.579729 31.833195 -3.237235 11.171863 -13.193745 -0.802377
RightUpLeg -0.470871 14.635070 16.900162
RightLeg -3.972802 -0.000000 0.000000
RightFoot -3.632759 -3.827083 -13.178675
RightToeBase 0.738155 -0.000000 -0.000000
LeftUpLeg -22.581351 0.706167 -8.593960
LeftLeg 35.040958 -0.000000 -0.000000
LeftFoot -28.094174 13.053418 -12.046620
LeftToeBase 7.409187 -0.000000 -0.000000
Spine -7.431776 -2.573947 -35.830632
RightShoulder -20.666723 19.932018 -66.024468
RightArm 60.576954 50.134935 33.136263
RightForeArm -3.003318 -0.000000 27.968463
RightHand 18.925934 -0.000000 -7.571348
RightHandThumb1 -24.326973 -0.000000 -32.862282
LeftShoulder -16.868144 4.166007 6.236736
LeftArm 15.160190 22.444381 -65.807376
LeftForeArm 18.393185 -0.000000 11.834632
LeftHand -2.194430 -0.000000 -6.763523
LeftHandThumb1 -26.253704 0.000000 33.147579
Head -13.687217 -1.347609 -36.000619
1123
root -9.573424 31.834618 -3.239900 11.187940 -13.188154 -0.808294
RightUpLeg -0.486493 14.657498 16.887269
RightLeg -3.994611 -0.000000 0.000000
RightFoot -3.599488 -3.824829 -13.212953
RightToeBase 0.679277 -0.000000 -0.000000
LeftUpLeg -22.598265 0.615057 -8.589688
LeftLeg 35.036165 -0.000000 -0.000000
LeftFoot -28.109281 13.116360 -12.090819
LeftToeBase 7.407177 -0.000000 -0.000000
Spine -7.424886 -2.531066 -35.789474
RightShoulder -20.663768 19.869885 -66.010679
RightArm 60.562667 50.147787 33.150253
RightForeArm -2.995770 -0.000000 27.928765
RightHand 18.920026 -0.000000 -7.635139
RightHandThumb1 -24.326973 -0.000000 -32.862282
LeftShoulder -16.848655 4.143038 6.234653
LeftArm 15.218335 22.536024 -65.802427
LeftForeArm 18.364905 -0.000000 11.899268
LeftHand -2.051017 -0.000000 -6.850675
LeftHandThumb1 -26.253704 0.000000 33.147579
Head -13.643488 -1.348268 -35.929784
1124
root -9.566712 31.835237 -3.244113 11.214864 -13.182205 -0.822266
RightUpLeg -0.518247 14.660850 16.880321
RightLeg -4.003100 -0.000000 0.000000
RightFoot -3.592630 -3.793834 -13.228150
RightToeBase 0.619736 -0.000000 -0.000000
LeftUpLeg -22.630544 0.539437 -8.580363
LeftLeg 35.038419 -0.000000 -0.000000
LeftFoot -28.135194 13.157044 -12.140692
LeftToeBase 7.465547 -0.000000 -0.000000
Spine -7.409675 -2.452176 -35.745990
RightShoulder -20.686839 19.794531 -65.978235
RightArm 60.482517 50.154155 33.052702
RightForeArm -2.972852 -0.000000 27.887894
RightHand 18.905702 -0.000000 -7.655609
RightHandThumb1 -24.326973 -0.000000 -32.862282
LeftShoulder -16.822551 4.100488 6.241047
LeftArm 15.287852 22.607242 -65.806573
LeftForeArm 18.419404 -0.000000 11.977369
LeftHand -1.969577 -0.000000 -6.982669
LeftHandThumb1 -26.253704 0.000000 33.147579
Head -13.594900 -1.491457 -35.837706
1125
root -9.559505 31.835808 -3.248138 11.238030 -13.183622 -0.831925
RightUpLeg -0.546912 14.668754 16.868413
RightLeg -4.010488 -0.000000 0.000000
RightFoot -3.588874 -3.775564 -13.218333
RightToeBase 0.646501 -0.000000 -0.000000
LeftUpLeg -22.656897 0.476527 -8.578833
LeftLeg 35.031844 -0.000000 -0.000000
LeftFoot -28.162943 13.222706 -12.171980
LeftToeBase 7.512873 -0.000000 -0.000000
Spine -7.414895 -2.411252 -35.682641
RightShoulder -20.669408 19.714080 -65.947026
RightArm 60.494158 50.208961 33.067856
RightForeArm -2.987517 0.000000 27.845318
RightHand 18.912347 -0.000000 -7.606588
RightHandThumb1 -24.326973 -0.000000 -32.862282
LeftShoulder -16.806335 4.126912 6.215058
LeftArm 15.370653 22.654283 -65.786598
LeftForeArm 18.408058 -0.000000 12.094321
LeftHand -1.996454 -0.000000 -7.055689
LeftHandThumb1 -26.253704 0.000000 33.147579
Head -13.573111 -1.500269 -35.762131
1126
root -9.551531 31.835990 -3.251852 11.257210 -13.193314 -0.842345
RightUpLeg -0.570984 14.661080 16.857768
RightLeg -4.014046 -0.000000 0.000000
RightFoot -3.590323 -3.733702 -13.250321
RightToeBase 0.579157 -0.000000 -0.000000
LeftUpLeg -22.683881 0.430214 -8.580727
LeftLeg 35.037406 -0.000000 -0.000000
LeftFoot -28.188044 13.249200 -12.242502
LeftToeBase 7.541211 -0.000000 -0.000000
Spine -7.414272 -2.373891 -35.605555
RightShoulder -20.664732 19.659694 -65.940800
RightArm 60.455000 50.240920 33.034736
RightForeArm -3.012064 -0.000000 27.808906
RightHand 18.927395 -0.000000 -7.576220
RightHandThumb1 -24.326973 -0.000000 -32.862282
LeftShoulder -16.807516 4.100473 6.187429
LeftArm 15.410551 22.741974 -65.767674
LeftForeArm 18.347414 -0.000000 12.204202
LeftHand -2.015453 -0.000000 -7.104704
LeftHandThumb1 -26.253704 0.000000 33.147579
Head -13.579702 -1.530719 -35.737680
